<svg width="327" height="237" viewBox="0 0 327 237" fill="none" xmlns="http://www.w3.org/2000/svg">
<path d="M163 0H316C321.523 0 326 4.47715 326 10V153C326 158.523 321.523 163 316 163H163V0Z" fill="#0B8DB7"/>
<path d="M249.16 56.0561V115.288H240.808V56.0561H222.088V48.0881H267.88V56.0561H249.16Z" fill="white"/>
<path d="M10 1.5H161.5V161.5H10C5.30558 161.5 1.5 157.694 1.5 153V10C1.5 5.30558 5.30558 1.5 10 1.5Z" stroke="#0B8DB7" stroke-width="3"/>
<g filter="url(#filter0_d_201_2)">
<path d="M106.56 114.9H98.496L68.256 66.8999C67.104 65.0439 66.208 63.4759 65.568 62.1959C65.696 64.1159 65.76 65.6839 65.76 66.8999V114.9H57.408V47.6999H65.856L95.616 95.5079C96.64 97.1719 97.568 98.8359 98.4 100.5C98.272 98.1959 98.208 96.5639 98.208 95.6039V47.6999H106.56V114.9Z" fill="#0B8DB7"/>
</g>
<path d="M129.152 214.288C127.792 214.288 126.608 213.96 125.6 213.304C124.592 212.648 123.912 211.84 123.56 210.88L125.144 210.304C125.496 211.056 126.024 211.656 126.728 212.104C127.432 212.552 128.248 212.776 129.176 212.776C130.28 212.776 131.144 212.512 131.768 211.984C132.408 211.44 132.728 210.672 132.728 209.68C132.728 208.736 132.384 207.96 131.696 207.352C131.008 206.728 130.088 206.2 128.936 205.768C128.248 205.512 127.648 205.256 127.136 205C126.64 204.744 126.128 204.424 125.6 204.04C125.088 203.64 124.696 203.168 124.424 202.624C124.152 202.08 124.016 201.48 124.016 200.824C124.016 199.72 124.464 198.792 125.36 198.04C126.256 197.288 127.456 196.912 128.96 196.912C130.176 196.912 131.2 197.16 132.032 197.656C132.864 198.152 133.4 198.792 133.64 199.576L132.08 200.104C131.856 199.624 131.464 199.224 130.904 198.904C130.36 198.584 129.688 198.424 128.888 198.424C127.912 198.424 127.144 198.64 126.584 199.072C126.024 199.504 125.744 200.08 125.744 200.8C125.744 201.232 125.84 201.616 126.032 201.952C126.24 202.288 126.544 202.592 126.944 202.864C127.36 203.136 127.752 203.36 128.12 203.536C128.504 203.712 129 203.92 129.608 204.16C130.264 204.416 130.84 204.688 131.336 204.976C131.848 205.248 132.352 205.6 132.848 206.032C133.36 206.464 133.752 206.984 134.024 207.592C134.312 208.2 134.456 208.88 134.456 209.632C134.456 211.088 133.968 212.232 132.992 213.064C132.016 213.88 130.736 214.288 129.152 214.288ZM157.394 213.544C156.466 214.04 155.378 214.288 154.13 214.288C152.882 214.288 151.794 214.04 150.866 213.544C149.938 213.032 149.21 212.352 148.682 211.504C148.17 210.64 147.786 209.72 147.53 208.744C147.29 207.752 147.17 206.704 147.17 205.6C147.17 204.496 147.29 203.456 147.53 202.48C147.786 201.488 148.17 200.568 148.682 199.72C149.21 198.856 149.938 198.176 150.866 197.68C151.794 197.168 152.882 196.912 154.13 196.912C155.378 196.912 156.466 197.168 157.394 197.68C158.322 198.176 159.042 198.856 159.554 199.72C160.082 200.568 160.466 201.488 160.706 202.48C160.962 203.456 161.09 204.496 161.09 205.6C161.09 206.704 160.962 207.752 160.706 208.744C160.466 209.72 160.082 210.64 159.554 211.504C159.042 212.352 158.322 213.032 157.394 213.544ZM154.13 212.776C155.058 212.776 155.866 212.568 156.554 212.152C157.258 211.72 157.802 211.152 158.186 210.448C158.586 209.728 158.874 208.96 159.05 208.144C159.242 207.328 159.338 206.48 159.338 205.6C159.338 204.304 159.178 203.144 158.858 202.12C158.554 201.08 157.994 200.208 157.178 199.504C156.378 198.784 155.362 198.424 154.13 198.424C153.202 198.424 152.386 198.64 151.682 199.072C150.994 199.488 150.45 200.056 150.05 200.776C149.666 201.48 149.378 202.24 149.186 203.056C149.01 203.872 148.922 204.72 148.922 205.6C148.922 206.896 149.074 208.064 149.378 209.104C149.698 210.128 150.258 211 151.058 211.72C151.874 212.424 152.898 212.776 154.13 212.776ZM174.523 214V197.2H176.203V212.392H184.531V214H174.523ZM208.523 207.76C208.523 212.112 206.603 214.288 202.763 214.288C198.923 214.288 197.003 212.112 197.003 207.76V197.2H198.683V207.76C198.683 211.104 200.043 212.776 202.763 212.776C205.483 212.776 206.843 211.104 206.843 207.76V197.2H208.523V207.76ZM227.883 198.808V214H226.203V198.808H221.595V197.2H232.515V198.808H227.883ZM245.72 214V197.2H247.4V214H245.72ZM271.071 213.544C270.143 214.04 269.055 214.288 267.807 214.288C266.559 214.288 265.471 214.04 264.543 213.544C263.615 213.032 262.887 212.352 262.359 211.504C261.847 210.64 261.463 209.72 261.207 208.744C260.967 207.752 260.847 206.704 260.847 205.6C260.847 204.496 260.967 203.456 261.207 202.48C261.463 201.488 261.847 200.568 262.359 199.72C262.887 198.856 263.615 198.176 264.543 197.68C265.471 197.168 266.559 196.912 267.807 196.912C269.055 196.912 270.143 197.168 271.071 197.68C271.999 198.176 272.719 198.856 273.231 199.72C273.759 200.568 274.143 201.488 274.383 202.48C274.639 203.456 274.767 204.496 274.767 205.6C274.767 206.704 274.639 207.752 274.383 208.744C274.143 209.72 273.759 210.64 273.231 211.504C272.719 212.352 271.999 213.032 271.071 213.544ZM267.807 212.776C268.735 212.776 269.543 212.568 270.231 212.152C270.935 211.72 271.479 211.152 271.863 210.448C272.263 209.728 272.551 208.96 272.727 208.144C272.919 207.328 273.015 206.48 273.015 205.6C273.015 204.304 272.855 203.144 272.535 202.12C272.231 201.08 271.671 200.208 270.855 199.504C270.055 198.784 269.039 198.424 267.807 198.424C266.879 198.424 266.063 198.64 265.359 199.072C264.671 199.488 264.127 200.056 263.727 200.776C263.343 201.48 263.055 202.24 262.863 203.056C262.687 203.872 262.599 204.72 262.599 205.6C262.599 206.896 262.751 208.064 263.055 209.104C263.375 210.128 263.935 211 264.735 211.72C265.551 212.424 266.575 212.776 267.807 212.776ZM300.08 214H298.376L290.552 201.424C290.152 200.752 289.928 200.376 289.88 200.296V201.424V214H288.2V197.2H289.904L297.704 209.92C297.96 210.336 298.192 210.728 298.4 211.096V209.92V197.2H300.08V214ZM318.994 214.288C317.634 214.288 316.45 213.96 315.442 213.304C314.434 212.648 313.754 211.84 313.402 210.88L314.986 210.304C315.338 211.056 315.866 211.656 316.57 212.104C317.274 212.552 318.09 212.776 319.018 212.776C320.122 212.776 320.986 212.512 321.61 211.984C322.25 211.44 322.57 210.672 322.57 209.68C322.57 208.736 322.226 207.96 321.538 207.352C320.85 206.728 319.93 206.2 318.778 205.768C318.09 205.512 317.49 205.256 316.978 205C316.482 204.744 315.97 204.424 315.442 204.04C314.93 203.64 314.538 203.168 314.266 202.624C313.994 202.08 313.858 201.48 313.858 200.824C313.858 199.72 314.306 198.792 315.202 198.04C316.098 197.288 317.298 196.912 318.802 196.912C320.018 196.912 321.042 197.16 321.874 197.656C322.706 198.152 323.242 198.792 323.482 199.576L321.922 200.104C321.698 199.624 321.306 199.224 320.746 198.904C320.202 198.584 319.53 198.424 318.73 198.424C317.754 198.424 316.986 198.64 316.426 199.072C315.866 199.504 315.586 200.08 315.586 200.8C315.586 201.232 315.682 201.616 315.874 201.952C316.082 202.288 316.386 202.592 316.786 202.864C317.202 203.136 317.594 203.36 317.962 203.536C318.346 203.712 318.842 203.92 319.45 204.16C320.106 204.416 320.682 204.688 321.178 204.976C321.69 205.248 322.194 205.6 322.69 206.032C323.202 206.464 323.594 206.984 323.866 207.592C324.154 208.2 324.298 208.88 324.298 209.632C324.298 211.088 323.81 212.232 322.834 213.064C321.858 213.88 320.578 214.288 318.994 214.288Z" fill="#0B8DB7"/>
<path d="M8.544 217L1.68 192.472H7.824L10.704 204.424C10.8 204.776 10.912 205.352 11.04 206.152C11.2 206.952 11.296 207.448 11.328 207.64C11.68 206.04 11.92 204.968 12.048 204.424L15.168 192.472H20.832L23.904 204.424C24.032 204.968 24.272 206.04 24.624 207.64C24.656 207.448 24.736 206.952 24.864 206.152C25.024 205.352 25.152 204.776 25.248 204.424L28.224 192.472H34.368L27.456 217H21.936L18.816 204.76C18.304 202.616 18.032 201.4 18 201.112C17.968 201.4 17.696 202.616 17.184 204.76L14.064 217H8.544ZM54.2445 217.576C50.6925 217.576 47.8925 216.44 45.8445 214.168C43.7965 211.896 42.7725 208.744 42.7725 204.712C42.7725 200.776 43.7965 197.656 45.8445 195.352C47.9245 193.048 50.7245 191.896 54.2445 191.896C57.4445 191.896 60.0525 192.888 62.0685 194.872C64.0845 196.824 65.0925 199.688 65.0925 203.464C65.0925 205.032 65.0285 206.264 64.9005 207.16H48.9165C49.0445 208.696 49.6045 209.912 50.5965 210.808C51.6205 211.672 52.8365 212.104 54.2445 212.104C56.4205 212.104 58.1805 211.256 59.5245 209.56L63.3645 213.448C61.0925 216.2 58.0525 217.576 54.2445 217.576ZM48.9645 201.88H58.9965C58.8045 200.472 58.2765 199.368 57.4125 198.568C56.5805 197.768 55.5245 197.368 54.2445 197.368C51.1085 197.368 49.3485 198.872 48.9645 201.88ZM86.6239 217.576C84.4159 217.576 82.7519 216.792 81.6319 215.224V217H75.3919V185.176L81.6319 182.344V194.248C82.8799 192.68 84.6239 191.896 86.8639 191.896C89.8399 191.896 92.2719 193.064 94.1599 195.4C96.0799 197.704 97.0399 200.808 97.0399 204.712C97.0399 208.808 96.1119 211.976 94.2559 214.216C92.3999 216.456 89.8559 217.576 86.6239 217.576ZM85.9039 211.576C87.4719 211.576 88.6719 210.968 89.5039 209.752C90.3679 208.536 90.7999 206.856 90.7999 204.712C90.7999 202.504 90.3679 200.824 89.5039 199.672C88.6719 198.488 87.4719 197.896 85.9039 197.896C83.9839 197.896 82.5599 198.568 81.6319 199.912V209.608C82.5599 210.92 83.9839 211.576 85.9039 211.576Z" fill="#0B8DB7"/>
<defs>
<filter id="filter0_d_201_2" x="57.4082" y="43.7" width="58.1514" height="75.2" filterUnits="userSpaceOnUse" color-interpolation-filters="sRGB">
<feFlood flood-opacity="0" result="BackgroundImageFix"/>
<feColorMatrix in="SourceAlpha" type="matrix" values="0 0 0 0 0 0 0 0 0 0 0 0 0 0 0 0 0 0 127 0" result="hardAlpha"/>
<feOffset dx="5"/>
<feGaussianBlur stdDeviation="2"/>
<feColorMatrix type="matrix" values="0 0 0 0 0 0 0 0 0 0 0 0 0 0 0 0 0 0 0.25 0"/>
<feBlend mode="normal" in2="BackgroundImageFix" result="effect1_dropShadow_201_2"/>
<feBlend mode="normal" in="SourceGraphic" in2="effect1_dropShadow_201_2" result="shape"/>
</filter>
</defs>
</svg>
